<?xml version="1.0" encoding="UTF-8"?>
<svg width="410px" height="362px" viewBox="0 0 410 362" version="1.1" xmlns="http://www.w3.org/2000/svg" xmlns:xlink="http://www.w3.org/1999/xlink">
    <!-- Generator: Sketch 53.2 (72643) - https://sketchapp.com -->
    <title>logo</title>
    <desc>Created with Sketch.</desc>
    <defs>
        <filter x="-21.5%" y="-24.8%" width="143.0%" height="149.7%" filterUnits="objectBoundingBox" id="filter-1">
            <feOffset dx="0" dy="17" in="SourceAlpha" result="shadowOffsetOuter1"></feOffset>
            <feGaussianBlur stdDeviation="12" in="shadowOffsetOuter1" result="shadowBlurOuter1"></feGaussianBlur>
            <feColorMatrix values="0 0 0 0 0   0 0 0 0 0   0 0 0 0 0  0 0 0 0.7 0" type="matrix" in="shadowBlurOuter1" result="shadowMatrixOuter1"></feColorMatrix>
            <feMerge>
                <feMergeNode in="shadowMatrixOuter1"></feMergeNode>
                <feMergeNode in="SourceGraphic"></feMergeNode>
            </feMerge>
        </filter>
    </defs>
    <g id="Page-1" stroke="none" stroke-width="1" fill="none" fill-rule="evenodd">
        <g id="Start" transform="translate(-436.000000, -103.000000)" fill="#FFFFFF" fill-rule="nonzero">
            <g id="logo" filter="url(#filter-1)" transform="translate(458.000000, 110.000000)">
                <path d="M326.626549,96.5757522 C326.626549,78.2030088 326.626549,59.8162832 326.626549,41.4435398 C326.626549,38.7169912 325.591858,34.2846018 330.569558,35.3332743 C334.456637,36.1582301 340.846549,34.2146903 340.818584,41.6253097 C340.818584,51.1612389 340.538938,60.6971681 340.510973,70.2470796 C340.510973,71.6453097 339.713982,73.8824779 341.811327,74.4417699 C343.908673,75.0010619 344.426018,72.8477876 345.16708,71.5474336 C349.72531,63.5635398 349.697345,54.6148673 350.522301,45.8339823 C350.732035,43.6387611 349.193982,39.8215929 353.500531,40.2410619 C357.373628,40.6465487 363.288142,39.8635398 363.777522,45.1768142 C364.910088,57.9286726 364.812212,70.8483186 358.184602,82.4815929 C356.759482,84.5248358 356.425198,87.1364244 357.289735,89.4727434 C365.790973,112.319823 364.392743,136.131681 364.183009,159.831681 C364.183009,162.516283 363.455929,164.893274 360.351858,164.026372 C356.506726,163.019646 350.676106,164.222124 350.564248,157.664425 C350.382478,147.415398 350.564248,137.180354 350.466372,126.903363 C350.466372,118.290265 349.990973,109.677168 347.306372,101.399646 C346.635221,99.3162832 346.187788,96.3939823 343.04177,96.7435398 C339.895752,97.0930973 340.24531,100.029381 340.24531,102.252566 C340.24531,118.751681 340.510973,135.264779 340.385133,151.777876 C340.385133,154.462478 342.622301,158.978761 337.239115,159.314336 C330.485664,159.733805 326.640531,156.657699 326.640531,151.512212 L326.640531,96.5757522 L326.626549,96.5757522 Z" id="Path"></path>
                <path d="M2.57274336,109.327611 C2.57274336,85.8513274 2.79646018,67.9260177 2.44690265,50.000708 C2.36300885,44.8971681 3.94300885,42.2545133 8.93469027,41.1778761 C13.7026549,40.1431858 18.3028319,38.3814159 23.0568142,37.3047788 C32.8444248,35.1654867 39.6817699,40.6185841 39.8355752,50.5320354 C40.1433719,60.5443764 39.8211429,70.5661649 38.8707965,80.5380531 C38.289494,84.1740012 37.1231864,87.6918115 35.4171681,90.9548673 C31.460177,99.5679646 33.6274336,108.852212 35.0676106,117.521239 C36.9831858,129.056637 37.0251327,140.703894 38.5212389,152.22531 C39.4021239,159.104602 33.4736283,158.475398 29.600531,159.370265 C24.5109735,160.558761 25.6575221,156.573805 25.5176991,153.609558 C24.6927434,137.348142 23.8817699,121.072743 22.8330973,104.811327 C22.679292,102.476283 24.0495575,98.4773451 19.4493805,98.5752212 C15.2546903,98.659115 15.9118584,102.098761 15.9118584,104.811327 C15.9118584,121.799823 15.9118584,138.788319 15.9118584,155.790796 C15.9118584,161.467611 10.179115,166.095752 4.89380531,164.641593 C1.27238938,163.634867 2.50283186,160.446903 2.54477876,158.209735 C2.79646018,140.102655 1.6079646,121.939646 2.57274336,109.327611 Z M15.9538053,68.4153982 L15.9538053,68.4153982 C15.9538053,71.659292 15.7720354,74.9171681 15.9538053,78.2030088 C16.1215929,80.440177 14.5555752,83.7959292 18.5684956,84.2853097 C22.5814159,84.7746903 24.1614159,81.8523894 24.399115,78.8461947 C24.9304425,71.4635398 24.9863717,64.0529204 24.9164602,56.6562832 C24.9164602,54.2653097 23.5182301,52.0980531 20.5260177,52.3357522 C19.2247085,52.294394 17.9699253,52.821906 17.0890607,53.7806519 C16.2081961,54.7393978 15.7886261,56.0342764 15.939823,57.3274336 C15.9817699,60.9907965 15.9538053,64.6961062 15.9538053,68.4153982 L15.9538053,68.4153982 Z" id="Shape"></path>
                <path d="M110.110619,57.3274336 C110.110619,68.8348673 109.844956,80.3423009 110.110619,91.8497345 C110.586018,108.516637 109.844956,125.113628 108.978053,141.752566 C108.726372,146.506549 107.272212,147.233628 103.636814,147.443363 C99.2743363,147.709027 97.3307965,145.877345 97.3867257,141.333097 C97.5545133,126.441947 97.4985841,111.564779 97.5265487,96.6736283 C97.5265487,75.5137463 97.559174,54.3538643 97.6244248,33.1939823 C97.6244248,29.4746903 96.7575221,25.4058407 102.33646,24.8046018 C106.89469,24.3571681 111.536814,22.7631858 113.522301,29.460708 C114.920531,34.2985841 117.59115,38.7589381 120.052035,44.1980531 C123.100177,39.0106195 121.701947,34.1307965 121.450265,29.600531 C121.198584,24.0076106 123.631504,22.3576991 128.804956,22.1619469 C134.202124,21.9522124 135.096991,24.8325664 134.775398,29.1530973 C133.698761,43.5269027 134.495752,57.9286726 133.922478,72.3444248 C133.279292,88.4520354 133.209381,104.713451 133.684779,120.918938 C133.880531,127.420708 133.489027,133.950442 133.684779,140.494159 C133.880531,145.835398 130.454867,145.667611 126.805487,145.835398 C122.834513,146.03115 120.80708,144.926549 120.946903,140.396283 C121.534159,120.191858 121.715929,99.9874336 120.303717,79.7830088 C119.71646,71.3936283 115.479823,64.500354 112.319823,57.1456637 L110.110619,57.3274336 Z" id="Path"></path>
                <path d="M187.362832,82.6214159 C187.362832,67.7162832 187.16708,52.8111504 187.362832,37.8780531 C187.572566,25.8812389 192.004956,20.9734513 202.505664,20.0226549 C213.006372,19.0718584 221.241947,24.9723894 223.716814,35.0815929 C224.709558,39.2762832 224.401947,43.4709735 224.485841,47.6656637 C224.569735,51.860354 223.982478,55.719469 218.193805,55.3978761 C213.160177,55.1042478 209.510796,53.8178761 210.615398,47.5677876 C210.897807,45.4871609 210.949389,43.3816943 210.769204,41.2897345 C210.615398,38.3115044 209.734513,35.6968142 206.113097,35.4311504 C202.491681,35.1654867 201.345133,37.7522124 200.953628,40.6884956 C200.768951,42.5468255 200.689591,44.4141178 200.715929,46.2814159 C200.436283,69.3335693 200.184602,92.3903835 199.960885,115.451858 C200.013184,118.475528 200.26072,121.492664 200.701947,124.484425 C200.822693,126.447265 202.376019,128.018514 204.337345,128.16177 C206.545272,128.51436 208.621944,127.013151 208.979469,124.806018 C209.524375,122.3095 209.735952,119.751767 209.608673,117.199646 C209.329027,111.606726 211.314513,109.20177 217.256991,109.271681 C223.702832,109.271681 223.646903,113.130796 223.381239,117.661062 C223.185487,121.142655 223.14354,124.652212 222.989735,128.119823 C222.374513,141.640708 209.007434,148.785664 196.982655,142.395752 C189.865664,138.634513 186.747611,133.558938 186.551858,125.253451 C186.202301,111.005487 186.957345,96.8134513 187.362832,82.6214159 Z" id="Path"></path>
                <path d="M69.1424779,89.8642478 C73.6785208,78.0683656 75.1224994,65.3084076 73.3371681,52.7971681 C72.3304425,45.8060177 73.239292,38.8148673 73.4909735,31.9076106 C73.700708,25.8253097 78.5665487,26.9858407 82.2159292,26.440531 C86.3127434,25.8532743 87.3893805,28.2023009 87.3614159,31.8656637 C87.2635398,44.8971681 87.6130973,57.9426549 87.1936283,71.0161062 C86.9419469,79.2097345 83.6840708,86.8860177 80.5100885,94.3246018 C77.839469,100.602655 75.7281416,106.698938 76.1056637,113.704071 C76.6509735,123.925133 76.3573451,134.188142 76.8047788,144.465133 C77.0704425,150.46354 73.9244248,151.819823 68.7929204,152.337168 C63.0042478,152.910442 63.5915044,148.911504 63.4656637,145.653628 C63.0881416,134.957168 62.9762832,124.246726 62.7246018,113.494336 C62.640708,110.012743 62.7246018,106.503186 60.2357522,103.566903 C52.5734513,94.0309735 50.8256637,82.4955752 49.9168142,70.8483186 C49.0778761,60.1938053 49.0079646,49.4693805 48.8261947,38.7729204 C48.7143363,32.4948673 56.6423009,27.5870796 62.039469,30.4814159 C64.7100885,31.879646 63.8292035,34.5782301 63.8571681,36.7454867 C64.0669027,47.9313274 64.0529204,59.1171681 64.220708,70.3030088 C64.3185841,76.539115 64.9338053,82.719292 69.1424779,89.8642478 Z" id="Path"></path>
                <path d="M237,135.292743 C238.032931,123.431069 240.167443,111.691252 243.375929,100.225133 C248.898938,80.999469 251.555575,61.0746903 257.134513,41.960885 C258.364956,37.6962832 256.14177,36.3679646 252.702124,36.0743363 C248.297699,35.6688496 243.879292,35.3053097 239.474867,35.3332743 C234.063717,35.3332743 234.38531,31.879646 234.525133,28.2442478 C234.664956,24.6088496 234.958584,21.099292 240.187965,21.6446018 C249.667965,22.6093805 259.175929,23.3923894 268.655929,24.3292035 C271.57823,24.6228319 273.577699,26.1049558 273.130265,29.3348673 C272.109558,36.619646 272.48708,43.9883186 270.599469,51.259115 C264.615044,74.3438938 259.092035,97.5545133 253.373274,120.709204 C253.051681,122.107434 252.646195,123.379823 252.324602,124.722124 C250.926372,130.650619 252.086903,134.132212 259.315752,133.251327 C262.337698,133.080766 265.368153,133.363545 268.306372,134.090265 C274.486549,135.20885 277.199115,140.62 274.808142,146.464602 C273.787434,148.981416 272.095575,148.953451 269.760531,148.659823 C260.546195,147.443363 251.303894,146.39469 242.061593,145.429912 C234.623009,144.660885 238.524071,138.718407 237,135.292743 Z" id="Path"></path>
                <path d="M284.875398,98.840885 C284.875398,90.9269027 284.441947,82.9709735 284.973274,75.0709735 C285.938053,60.8789381 284.889381,46.7148673 284.973274,32.5368142 C284.973274,28.3421239 286.371504,27.2235398 290.314513,28.020531 C297.375575,29.4187611 304.548496,30.299646 311.567611,31.8656637 C316.447434,32.9423009 319.062124,40.0173451 316.447434,44.0162832 C314.629735,46.8127434 312.252743,45.0090265 310.155398,44.5615929 C298.536106,42.0587611 298.536106,42.0168142 298.424248,54.1254867 C298.602163,58.3196678 298.555489,62.5203651 298.284425,66.7095575 C297.389558,73.980354 300.619469,76.9026549 307.610619,77.3361062 C311.707434,77.6437168 316.894867,77.4479646 316.783009,84.2293805 C316.699115,89.5985841 314.895398,91.8916814 309.148673,90.6752212 C298.731858,88.4660177 298.633982,88.6477876 298.536106,99.0646018 C298.43823,109.075929 298.466195,119.087257 298.536106,129.112566 C298.62,140.046726 296.634513,139.22177 308.687257,141.221239 C314.280177,142.144071 316.992743,144.283363 316.741062,150.211858 C316.559292,154.406549 314.797522,155.706903 311.064248,154.895929 C303.332035,153.232035 295.683717,151.470265 287.92354,149.722478 C284.232212,148.897522 285.224956,145.919292 285.210973,143.500354 C285.210973,128.609204 285.210973,113.704071 285.210973,98.7569912 L284.875398,98.840885 Z" id="Path"></path>
                <path d="M157.734336,106.601062 C157.734336,112.879115 157.944071,119.185133 157.734336,125.435221 C157.552566,129.839646 159.370265,131.349735 163.509027,130.902301 C165.816106,130.650619 168.15115,130.678584 170.500177,130.524779 C175.981239,130.147257 176.316814,133.950442 176.442655,137.851504 C176.568496,141.752566 175.19823,144.031681 170.849735,143.863894 C163.634867,143.584248 156.42,143.500354 149.219115,143.430442 C145.611681,143.430442 144.786726,141.752566 144.590973,138.201062 C143.192743,113.57823 146.08708,88.9833628 144.716814,64.3046018 C144.073541,51.7893814 144.073541,39.2493796 144.716814,26.7341593 C144.898584,22.819115 146.017168,20.8476106 150.393628,20.8615929 C157.580531,20.8615929 164.739469,19.8828319 171.982301,20.6378761 C177.057876,21.1552212 177.197699,24.0775221 177.085841,27.8667257 C176.973982,31.6559292 175.435929,33.6274336 171.199292,33.7812389 C158.209735,34.2846018 158.209735,34.4244248 157.832212,47.7635398 C157.832212,49.6231858 157.832212,51.4828319 157.832212,53.3564602 C157.832212,65.8426549 157.832212,66.0943363 170.416283,66.5557522 C175.813451,66.7515044 176.260885,69.6178761 176.316814,73.7706195 C176.316814,78.2169912 174.513097,79.9088496 170.066726,79.9927434 C158.125841,80.2164602 158.111858,80.3562832 157.944071,92.7026549 C157.944071,97.3587611 157.944071,102.014867 157.944071,106.684956 L157.734336,106.601062 Z" id="Path"></path>
                <path d="M364.448673,181.504248 C364.448673,184.67823 362.54708,183.811327 360.645487,183.363894 C355.052566,182.035575 349.291858,180.916991 343.643009,179.602655 C285.057168,165.927965 225.716283,160.460885 165.578407,161.691327 C127.504602,162.488319 89.9481416,166.962655 52.4895575,173.352566 C37.1090265,175.981239 21.9941593,179.560708 6.76743363,182.73469 C5.14548673,183.070265 2.47486726,185.40531 1.5520354,182.06354 C0.62920354,178.72177 3.70530973,178.35823 5.85858407,177.86885 C17.6176991,175.072389 29.3069027,171.85646 41.1778761,169.633274 C70.6622587,163.954686 100.453452,160.004937 130.398938,157.804248 C150.603363,156.406018 170.947611,155.958584 191.138053,156.042478 C233.826018,156.252212 276.192389,159.957522 318.097345,168.626549 C331.967788,171.520885 345.810265,174.555044 359.666726,177.533274 C361.889912,178.022655 364.490619,178.218407 364.448673,181.504248 Z" id="Path"></path>
                <path d="M183.937168,5.22938053 C143.331381,5.73456482 102.825306,9.37613806 62.780531,16.1215929 C44.1980531,19.2676106 25.7553982,22.9030088 7.41061947,27.1815929 C5.56495575,27.6010619 2.54477876,29.9780531 1.5660177,26.440531 C0.671150442,23.280531 3.94300885,22.9869027 6.06831858,22.3716814 C25.3079646,16.7787611 44.9670796,13.2412389 64.7100885,10.0672566 C113.116814,2.27911504 161.845133,-1.48212389 210.839115,0.545309735 C244.564895,2.0499385 278.153988,5.78673086 311.385841,11.7311504 C326.766372,14.4297345 341.923186,17.7854867 357.093982,21.2810619 C358.492212,21.5886726 359.764602,22.1060177 361.134867,22.399646 C363.553805,22.9030088 365.035929,24.2033628 364.364779,26.7621239 C363.553805,29.880177 361.288673,27.9366372 359.806549,27.6290265 C352.535752,26.1469027 345.306903,24.4410619 338.050088,22.7911504 C287.000708,11.1858407 235.182301,6.43185841 183.937168,5.22938053 Z" id="Path"></path>
                <path d="M46.6309735,276.849558 C61.3263717,277.772389 71.5893805,286.511327 81.9223009,295.166372 C92.2552212,303.821416 102.252566,304.953982 112.683363,299.249204 C120.98885,294.676991 124.45646,282.204779 119.674513,274.178938 C116.458584,268.809735 110.180531,267.257699 105.412566,270.976991 C102.616106,273.214159 100.75646,276.276283 103.538938,279.743894 C104.769381,281.281947 107.733628,282.036991 105.300708,284.58177 C103.049558,286.916814 100.364956,286.679115 97.8341593,284.735575 C93.633248,281.410448 92.6142862,275.45344 95.4711504,270.921062 C98.980708,264.964602 104.070265,261.273274 111.229204,262.070265 C118.388142,262.867257 123.393805,267.215752 125.700885,273.983186 C131.433628,291.027611 119.604602,307.610619 100.239115,310.40708 C85.3060177,312.546372 75.0709735,304.814159 65.6189381,295.026549 C62.2486247,291.48534 58.6068073,288.212847 54.7267257,285.238938 C50.2847183,281.793305 44.5653789,280.446378 39.0525664,281.547611 C37.1649558,281.855221 35.5150442,281.78531 34.8578761,279.813805 C34.0049558,277.450796 35.6129204,276.276283 37.4725664,275.423363 C38.2480804,275.069111 39.0656709,274.815376 39.9054867,274.668319 C55.0063717,272.445133 60.7950442,261.566903 64.360531,248.521416 C65.4092035,244.690265 64.6821239,243.124248 60.4874336,244.326726 C56.7559011,245.280259 53.2366224,246.926067 50.1125664,249.178584 C47.7076106,250.982301 46.2115044,253.624956 49.4973451,255.96 C51.4828319,257.35823 52.2938053,258.518761 50.6299115,260.504248 C48.9660177,262.489735 46.7987611,263.300708 44.4357522,261.762655 C40.4647788,259.245841 40.3389381,255.666372 41.8490265,251.667434 C44.3378761,245.039823 50.4341593,242.425133 56.180885,240.943009 C64.2906195,238.859646 67.5904425,234.259469 69.7297345,226.527257 C75.5323894,205.553805 90.2277876,193.79469 111.383009,189.921593 C124.959823,187.446726 136.830796,193.249381 140.340354,203.903894 C144.241416,215.704956 137.543894,231.169381 126.134336,237.083894 C116.139402,242.207358 104.772478,244.014508 93.6814159,242.243363 C80.6778761,240.369735 74.2879646,245.361416 69.7017699,257.036637 C65.7867257,267.061947 57.439292,273.70354 46.6309735,276.849558 Z M135.628319,208.098584 C135.446239,203.053223 132.304678,198.590341 127.61646,196.716991 C121.885244,194.145206 115.334184,194.114736 109.579292,196.633097 C93.7513274,203.064956 87.0538053,217.103186 80.7477876,231.504956 C78.6224779,236.356814 81.0414159,236.538584 84.6348673,236.063186 C94.4224779,234.776814 104.126195,233.881947 113.746018,232.106195 C126.078407,229.82708 135.628319,219.522124 135.628319,208.098584 Z" id="Shape"></path>
                <path d="M242.620885,189.725841 C241.74,199.331681 237.67115,206.938053 235.182301,214.977876 C233.504425,220.430973 227.897522,225.688319 236.482655,231.630796 C229.659292,228.023363 228.177168,232.022301 226.499292,235.96531 C221.661416,247.318938 216.711681,258.588673 211.873805,269.942301 C210.755221,272.570973 208.518053,275.95469 212.167434,277.800354 C215.229558,279.338407 217.522655,276.220354 219.647965,274.19292 C221.465664,272.459115 221.647434,269.45292 224.527788,267.970796 C227.170442,273.661593 221.969027,275.912743 219.606018,278.890973 C217.243009,281.869204 213.66354,283.756814 209.384956,282.162832 C205.637699,280.764602 204.519115,277.730442 204.267434,274.095044 C203.652212,264.992566 209.189204,257.987434 212.503009,250.255221 C215.299469,243.627611 218.781062,237.237699 221.885133,230.68 C222.486372,229.421593 223.549027,228.107257 221.885133,226.205664 C215.55115,238.789735 209.301062,251.247965 203.09292,263.67823 C200.631189,269.103112 197.248787,274.060815 193.095575,278.331681 C185.76885,285.322832 176.316814,283.393274 172.877168,273.88531 C169.032035,263.063009 172.429735,253.037699 178.078584,244.103009 C186.873451,230.120708 198.590619,220.123363 216.557876,221.130088 C219.228496,221.283894 220.892389,220.47292 221.857168,217.746372 C223.129558,214.15292 225.534513,210.86708 226.261593,207.203717 C227.072566,203.009027 228.19115,197.961416 221.983009,196.157699 C221.130088,195.92 220.235221,195.472566 220.584779,194.493805 C220.976283,193.095575 222.318584,192.829912 223.63292,192.787965 C229.701239,192.57823 235.979292,193.43115 242.620885,189.725841 Z M181.098761,268.613982 C181.406372,272.543009 180.819115,276.024602 184.440531,277.213097 C188.285664,278.471504 190.802478,276.13646 192.913805,273.15823 C201.582832,260.993628 207.70708,247.458761 214.180885,234.091681 C215.495221,231.379115 218.836991,227.70177 216.669735,225.702301 C214.180885,223.395221 209.888319,225.702301 206.504602,226.820885 C205.906728,227.040392 205.342087,227.341534 204.826726,227.715752 C190.299115,237.936814 183.82531,252.688142 181.084779,268.613982 L181.098761,268.613982 Z" id="Shape"></path>
                <path d="M309.763894,248.884956 C305.946726,255.973982 302.017699,263.00708 298.340354,270.18 C296.475297,273.536756 294.054693,276.553056 291.181416,279.100708 C287.930973,282.37973 283.095834,283.519326 278.723186,282.036991 C274.458584,280.638761 272.193451,277.338938 271.354513,273.15823 C266.181062,247.374867 288.95823,220.444956 315.286903,221.116106 C319.581787,221.051855 323.763043,222.496739 327.101947,225.198938 C332.457168,229.715221 332.177522,233.434513 326.864248,237.866903 C320.935752,242.816637 319.467611,250.618761 315.81823,257.050619 C313.330036,261.756568 311.252937,266.668626 309.610088,271.732035 C308.883009,273.801416 308.295752,276.625841 310.784602,278.121947 C313.273451,279.618053 315.258938,277.660531 316.755044,275.884779 C318.530796,273.787434 319.956991,271.39646 321.564956,269.14531 C322.026372,268.488142 322.445841,267.537345 323.466549,267.970796 C323.992933,268.135362 324.411881,268.536928 324.59859,269.055871 C324.7853,269.574814 324.718224,270.151246 324.417345,270.613451 C321.77469,274.416637 320.026903,279.002832 315.706372,281.435752 C310.449027,284.358053 305.387434,282.302655 303.72354,276.555929 C302.059646,270.809204 303.891327,265.216283 306.422124,259.944956 C308.058053,256.589204 310.476991,253.499115 309.763894,248.884956 Z M314.727611,225.115044 C309.759066,224.97244 304.900246,226.592046 301.010973,229.687257 C288.426903,239.600708 282.931858,253.457168 280.037522,268.516106 C279.450265,271.57823 279.226549,275.507257 282.680177,276.989381 C286.539292,278.653274 289.573451,276.108496 291.964425,273.130265 C293.054451,271.825827 294.018851,270.421362 294.844779,268.935575 C299.738584,259.777168 304.562478,250.576814 309.400354,241.37646 C310.267257,239.740531 310.602832,237.475398 313.175575,237.796991 C318.013451,238.412212 320.642124,237.111858 323.130973,232.07823 C324.990619,228.303009 323.746195,227.547965 321.564956,226.48531 C319.347691,225.761134 317.0527,225.301198 314.727611,225.115044 L314.727611,225.115044 Z" id="Shape"></path>
                <path d="M253.83469,194.829381 C262.224071,190.802478 270.193982,194.829381 277.604602,190.131327 C276.206372,201.429027 272.375221,210.909027 268.544071,220.16531 C263.118938,233.308673 256.68708,246.060531 250.436991,258.840354 C248.510685,262.850719 247.065142,267.07471 246.130442,271.424425 C245.683009,273.437876 244.732212,276.122478 246.983363,277.213097 C249.234513,278.303717 251.961062,276.947434 253.638938,274.808142 C255.316814,272.66885 256.81292,269.914336 259.595398,268.180531 C260.056814,274.654336 252.841947,282.778053 246.815575,283.099646 C241.586195,283.393274 237.950796,279.128673 237.349558,271.704071 C236.510619,261.413097 241.166726,252.730088 245.599115,243.963186 C251.625487,232.022301 258.504779,220.444956 261.804602,207.301593 C263.67823,199.569381 263.00708,198.213097 253.83469,194.829381 Z" id="Path"></path>
                <path d="M168.235044,222.738053 C163.327257,237.629204 156.489912,251.066195 150.183894,264.684956 C149.107257,267.02 147.681062,269.187257 147.736991,271.843894 C147.736991,273.689558 146.842124,276.192389 148.799646,277.143186 C151.106726,278.289735 153.427788,276.961416 155.049735,275.10177 C157.09115,272.752743 158.922832,270.221947 160.964248,267.607257 C162.460354,272.011681 158.167788,279.632035 153.134159,281.589558 C148.533982,283.36531 144.283363,282.987788 141.486903,278.177876 C138.466726,272.97646 138.956106,267.551327 140.508142,262.070265 C142.941062,253.387257 147.261593,245.557168 151.372389,237.615221 C153.315929,233.867965 156.210265,229.533451 148.925487,227.967434 C148.493477,227.942584 148.102909,227.702194 147.886098,227.327704 C147.669288,226.953213 147.655291,226.494808 147.84885,226.107788 C148.436106,224.709558 149.764425,224.569735 151.064779,224.555752 C156.741593,224.54177 162.488319,225.198938 168.235044,222.738053 Z" id="Path"></path>
                <path d="M174.778761,202.156106 C174.778761,207.16177 170.430265,213.202124 166.780885,212.894513 C165.268128,212.904397 163.821392,212.275655 162.796513,211.16293 C161.771635,210.050205 161.263722,208.556757 161.397699,207.049912 C161.397699,202.715398 166.892743,196.507257 170.430265,196.968673 C173.25469,197.346195 175.058407,198.996106 174.778761,202.156106 Z" id="Path"></path>
                <path d="M155.902655,260.672035 C161.383717,248.78708 167.284248,237.125841 171.67469,224.136283 C170.913997,224.459992 170.128443,224.721843 169.325664,224.919292 C165.033097,236.734336 159.621947,247.556637 154.546372,258.560708 C153.595575,260.616106 152.365133,262.517699 152.337168,264.89469 C152.337168,265.817522 152.057522,266.908142 152.099469,267.844956 C152.209402,267.965602 152.336628,268.069267 152.476991,268.152566 C152.807581,268.347921 153.173431,268.476206 153.553628,268.530088 C153.62354,267.970796 153.707434,267.411504 153.721416,266.908142 C153.80531,264.573097 154.965841,262.685487 155.902655,260.672035 Z" id="Path"></path>
                <path d="M206.364779,262.363894 C203.176814,268.767788 199.681239,274.947965 194.661593,279.84177 C187.83823,286.539292 179.672566,285.993982 175.086372,279.29646 C179.183186,288.245133 188.327611,289.81115 195.822124,282.428496 C199.910939,278.191764 203.312405,273.341962 205.903363,268.05469" id="Path"></path>
                <path d="M276.444071,207.874867 C269.872389,223.479115 262.224071,238.552035 254.757522,253.694867 C252.421113,258.487053 250.638517,263.529922 249.444248,268.725841 C249.038761,270.403717 248.325664,272.459115 248.759115,274.01115 L249.038761,274.095044 C249.206549,273.172212 249.486195,272.221416 249.695929,271.382478 C250.87743,266.265997 252.63162,261.298918 254.92531,256.575221 C262.000354,242.215398 269.187257,228.316991 276.290265,211.454336" id="Path"></path>
                <path d="M128.371504,274.053097 C133.530973,292.397876 120.513451,309.819823 99.679823,312.798053 C92.0170652,313.982533 84.1781826,312.575176 77.4060177,308.799115 C84.7093958,313.852986 93.6664727,315.928467 102.448319,314.60177 C123.589558,311.581593 136.565133,293.460531 130.203186,274.808142 C129.344867,272.188592 127.976235,269.764973 126.176283,267.677168 C126.653473,268.626466 127.064597,269.607556 127.406726,270.613451 C127.790639,271.741599 128.11271,272.889855 128.371504,274.053097 L128.371504,274.053097 Z" id="Path"></path>
                <path d="M74.5116814,260.070796 C79,248.773097 84.8585841,244.089027 96.3660177,246.326195 C106.227413,248.356443 116.487825,246.898436 125.393274,242.201416 C135.69823,236.762301 142.172035,221.843186 139.165841,210.153982 C138.679396,208.32207 137.930584,206.570134 136.942655,204.952566 C137.180354,205.58177 137.376106,206.224956 137.557876,206.896106 C140.675929,218.753097 134.034336,233.909912 123.575575,239.43292 C114.539755,244.207845 104.124318,245.690821 94.1148673,243.627611 C82.4256637,241.362478 76.4831858,246.11646 71.9249558,257.609912 C68.715396,265.800096 62.1716088,272.237109 53.9297345,275.311504 C55.6013864,275.641596 57.2429015,276.109264 58.8375221,276.709735 C66.0342508,273.42258 71.6597477,267.450821 74.5116814,260.070796 L74.5116814,260.070796 Z" id="Path"></path>
                <path d="M233.965841,232.329912 C230.666018,231.53292 229.533451,234.441239 228.289027,237.335575 C223.870619,247.668496 219.340354,257.931504 214.921947,268.264425 C214.166903,270.040177 212.894513,272.165487 213.523717,273.857345 L213.523717,273.857345 C213.685681,273.952413 213.853847,274.036496 214.02708,274.109027 C214.391211,272.78139 214.897503,271.496908 215.537168,270.277876 C219.871681,260.098761 224.346018,249.975575 228.694513,239.810442 C230.218584,236.258938 231.560885,232.679469 237.083894,236.14708 C235.746336,235.150586 234.675329,233.839444 233.965841,232.329912 Z" id="Path"></path>
                <path d="M316.377522,284.162301 C312.266726,286.483363 308.351681,285.910088 305.806903,282.987788 C304.685141,282.640316 303.666793,282.020661 302.842655,281.184071 C304.660354,287.490088 309.833805,289.797168 315.426726,286.637168 C320.250619,283.910619 322.347965,278.457522 325.396106,273.983186 C325.697194,273.530971 325.812377,272.980098 325.717699,272.445133 C322.99115,276.737699 320.865841,281.617522 316.377522,284.162301 Z" id="Path"></path>
            </g>
        </g>
    </g>
</svg>